<svg fill="#0149a6" height="24" viewBox="0 0 24 24" width="24" xmlns="http://www.w3.org/2000/svg"><path d="m8 16.5h-.75c0 .2625.13724.5059.36184.6417.22461.1359.5039.1444.73638.0226zm-6.75 5.5c0 .4142.33579.75.75.75s.75-.3358.75-.75zm9.9928-7.2.3482.6643.0279-.0146.0266-.0169zm1.5485 2.4554.3522.6622.0231-.0123.0222-.0139zm-4.02704 2.1419-.35219-.6621-.02311.0123-.02219.0138zm-2.79648-.7037.65118-.3721zm-.3166-2.0657c-.20551-.3596-.66365-.4846-1.02328-.2791-.35964.2055-.48459.6637-.27908 1.0233zm7.61552-1.3501.6431-.3859zm-4.5167 4.7222c0-.4142-.33579-.75-.75-.75s-.75.3358-.75.75zm-1.5 2c0 .4142.33579.75.75.75s.75-.3358.75-.75zm5.6173-7.9027-.4027.6328 1.2655.8053.4026-.6327zm4.7654-4.69464c.2224-.34946.1194-.81303-.23-1.03541-.3495-.22238-.8131-.11936-1.0354.23009zm-12.3827-4.90266c0 .41421.33579.75.75.75s.75-.33579.75-.75zm13.75 6.75c-.4142 0-.75.3358-.75.75s.3358.75.75.75zm-9-6c-.41421 0-.75.33579-.75.75s.33579.75.75.75zm8 1.5c.4142 0 .75-.33579.75-.75s-.3358-.75-.75-.75zm-8 1.5c-.41421 0-.75.33579-.75.75s.33579.75.75.75zm4 1.5c.4142 0 .75-.33579.75-.75s-.3358-.75-.75-.75zm-7.75-.75c0 .69036-.55964 1.25-1.25 1.25v1.5c1.51878 0 2.75-1.2312 2.75-2.75zm-1.25 1.25c-.69036 0-1.25-.55964-1.25-1.25h-1.5c0 1.5188 1.23122 2.75 2.75 2.75zm-1.25-1.25c0-.69036.55964-1.25 1.25-1.25v-1.5c-1.51878 0-2.75 1.23122-2.75 2.75zm1.25-1.25c.69036 0 1.25.55964 1.25 1.25h1.5c0-1.51878-1.23122-2.75-2.75-2.75zm3.75 8.75v-.5h-1.5v.5zm-7.5-.5v6h1.5v-6zm7.09822 1.1643 3.24278-1.7-.6964-1.3285-3.24282 1.6999zm4.09088-.571-4.02703 2.1419.70439 1.3243 4.02704-2.1419zm-5.82014 1.7282-.96778-1.6936-1.30236.7442.96778 1.6936zm5.02654-2.8887c.3329-.2119.775-.1075.9781.2309l1.2862-.7718c-.6372-1.062-2.0248-1.3895-3.0697-.7246zm-3.27873 3.3285c-.60182.3762-1.3957.1764-1.74781-.4398l-1.30236.7442c.77463 1.3556 2.52116 1.7951 3.84516.9676zm-5.61677-2.7613c0-1.2426 1.00736-2.25 2.25-2.25v-1.5c-2.07107 0-3.75 1.6789-3.75 3.75zm9.8736-.3363c.1967.3279.0945.753-.2298.9557l.795 1.272c1.0178-.6361 1.3385-1.9703.721-2.9995zm-3.8736.3363c0-2.0711-1.67893-3.75-3.75-3.75v1.5c1.24264 0 2.25 1.0074 2.25 2.25zm-1.5 4v2h1.5v-2zm6.8827-5.0973 3.5-5.50004-1.2654-.80532-3.5 5.49996zm-7.3827-10.4027v-.5h-1.5v.5zm1.25-1.75h12v-1.5h-12zm13.25 1.25v6h1.5v-6zm-1.25 7.25h-1v1.5h1zm1.25-1.25c0 .6904-.5596 1.25-1.25 1.25v1.5c1.5188 0 2.75-1.2312 2.75-2.75zm-1.25-7.25c.6904 0 1.25.55964 1.25 1.25h1.5c0-1.51878-1.2312-2.75-2.75-2.75zm-13.25 1.25c0-.69036.55964-1.25 1.25-1.25v-1.5c-1.51878 0-2.75 1.23122-2.75 2.75zm3.25 2.75h8v-1.5h-8zm0 3h4v-1.5h-4z" fill="#0149a6"/></svg>